
<svg version="1.1" id="Layer_1" xmlns="http://www.w3.org/2000/svg" xmlns:xlink="http://www.w3.org/1999/xlink" x="0px" y="0px"
 viewBox="242.735 0 341.737 560" enable-background="new 242.735 0 341.737 560"
	 xml:space="preserve" style="background-color:black;">
<path fill="none" d="z"/>

			<polygon fill="#30CCCF" points="326.56,361.19 320.428,354.239 292.87,354.239 292.87,361.19 292.87,415.554 368.37,415.554 
				368.37,361.19 			"/>
			<polygon fill="none" stroke="#FFFFFF" stroke-miterlimit="10" points="327.371,361.191 321.24,354.239 293.682,354.239 
				293.682,361.191 293.682,415.554 369.181,415.554 369.181,361.191 			"/>

<g>
	<path fill="#FFFFFF" d="M362.599,74.586c-0.559,5.717-10.602,10.333-22.944,10.333c-12.348,0-22.391-4.586-22.95-10.045h-0.038
		l11.415-5.289l4.801-2.353v-1.989c-4.852-3.494-7.589-10.469-7.589-18.517c0-11.542,1.937-19.895,14.306-20.061
		c12.698-0.172,13.975,8.518,13.975,20.061c0,8.049-3.102,15.023-7.953,18.517v1.989l5.188,2.21L362.599,74.586z"/>
</g>
<g>
	
		<rect x="462.388" y="241.35" transform="matrix(0.8891 0.4577 -0.4577 0.8891 165.2292 -186.5255)" fill="#FFFFFF" width="10.336" height="12.757"/>
	
		<rect x="463.485" y="242.319" transform="matrix(0.8891 0.4578 -0.4578 0.8891 164.8746 -186.9085)" fill="#3F474F" width="9.162" height="8.791"/>
	
	<animateTransform  type="translate" fill="remove" attributeName="transform" attributeType="HML" dur="8.5s" repeatCount="indefinite" accumulate="none" calcMode="linear" restart="always" begin="0.4" values="0,0;-145,140;-135,153; -10,490" additive="replace">
		</animateTransform>
</g>
<path fill="#FFFFFF" d="M469.924,239.653l-4.39,0.995l8.068,1.597l8.07,1.599l-3.681-2.593l-1.564-1.102l0.141-0.699
	c1.84-0.91,3.42-3.145,3.98-5.972c0.802-4.055,0.854-7.217-3.618-8.041c-4.357-0.801-5.605,2.002-6.408,6.055
	c-0.56,2.827,0.049,5.495,1.404,7.038l-0.138,0.7L469.924,239.653z">
<animateTransform  type="translate" fill="remove" attributeName="transform" attributeType="HML" dur="8.5s" repeatCount="indefinite" accumulate="none" calcMode="linear" restart="always" begin="0.2" values="0,0;-150,120;-145,143; 10,500" additive="replace">
		</animateTransform>
</path>
<g>
	<path fill="#3F474F" d="M514.104,239.553c0,3.455-2.802,6.256-6.256,6.256c-3.456,0-6.257-2.802-6.257-6.256
		c0-3.456,2.801-6.256,6.257-6.256C511.305,233.298,514.104,236.099,514.104,239.553L514.104,239.553z"/>
	<path fill="#FFFFFF" d="M508.02,232.661c-4.875-0.528-9.422,1.634-12.162,5.295c1.895,4.163,5.871,7.248,10.746,7.775
		c4.877,0.529,9.422-1.633,12.163-5.294C516.872,236.273,512.896,233.189,508.02,232.661L508.02,232.661z M506.75,245.011
		c-3.063-0.333-5.276-3.084-4.946-6.147c0.332-3.062,3.085-5.276,6.146-4.944c3.064,0.33,5.279,3.083,4.947,6.146
		S509.812,245.343,506.75,245.011L506.75,245.011z"/>
	<path fill="#FFFFFF" d="M510.352,239.79c-0.18,1.657-1.67,2.855-3.327,2.676c-1.656-0.18-2.854-1.668-2.675-3.326
		c0.179-1.657,1.667-2.855,3.326-2.676C509.333,236.644,510.53,238.133,510.352,239.79L510.352,239.79z"/>
	
		<animateTransform  type="translate" fill="remove" attributeName="transform" attributeType="HML" dur="8.5s" repeatCount="indefinite" accumulate="none" calcMode="linear" restart="always" begin="0.3" values="0,0;-150,135;-145,123; 4,500" additive="replace">
		</animateTransform>
</g>
<path fill="#FFFFFF" d="M501.51,239.818c0.489,3.354,0.977,6.708,1.474,10.062c0.089,0.605,0.1,1.196-0.254,1.624
	c-0.21,0.251-0.513,0.477-0.8,0.521c-4.454,0.676-8.91,1.322-13.367,1.97c-0.714,0.104-1.318-0.438-1.572-1.379
	c-0.029-0.109-0.046-0.221-0.063-0.333c-0.988-6.772-1.981-13.543-2.968-20.315c-0.184-1.268,0.293-2.038,1.324-2.188
	c4.273-0.625,8.549-1.25,12.823-1.876c1.112-0.162,1.716,0.396,1.921,1.788C500.523,233.063,501.016,236.441,501.51,239.818
	L501.51,239.818z M488.346,241.049c3.387-0.495,6.728-0.984,10.091-1.475c-0.486-3.314-0.964-6.587-1.443-9.875
	c-3.381,0.494-6.733,0.984-10.091,1.475C487.385,234.483,487.861,237.743,488.346,241.049L488.346,241.049z M489.981,252.253
	c3.392-0.497,6.724-0.983,10.098-1.477c-0.485-3.315-0.966-6.601-1.447-9.896c-3.385,0.495-6.729,0.983-10.097,1.476
	C489.02,245.665,489.499,248.939,489.981,252.253L489.981,252.253z M500.607,243.649c-0.105,0.016-0.21,0.037-0.316,0.045
	c-0.367,0.03-0.504,0.313-0.448,0.717c0.057,0.409,0.308,0.547,0.622,0.508c0.106-0.014,0.212-0.035,0.317-0.047
	c0.639-0.077,0.868-0.292,0.764-0.768C501.396,243.428,500.978,243.594,500.607,243.649L500.607,243.649z M486.771,239.961
	c-0.2,0.029-0.374-0.008-0.462,0.08c-0.148,0.153-0.361,0.403-0.333,0.574c0.035,0.222,0.261,0.453,0.445,0.593
	c0.105,0.081,0.294-0.011,0.444-0.032c0.657-0.094,0.884-0.299,0.78-0.752C487.491,239.753,487.08,239.908,486.771,239.961
	L486.771,239.961z M500.997,246.473c-0.03,0.004-0.061,0.01-0.09,0.012c-0.502,0.062-0.715,0.292-0.658,0.708
	c0.06,0.426,0.307,0.574,0.834,0.5c0.029-0.005,0.06-0.009,0.089-0.013c0.651-0.096,0.864-0.292,0.795-0.737
	C501.898,246.507,501.615,246.371,500.997,246.473L500.997,246.473z M499.404,235.149c-0.166,0.025-0.377-0.019-0.485,0.088
	c-0.148,0.151-0.322,0.429-0.294,0.626c0.027,0.2,0.28,0.496,0.448,0.522c0.311,0.051,0.654,0,0.936-0.139
	c0.151-0.075,0.305-0.438,0.27-0.637c-0.033-0.197-0.288-0.388-0.473-0.506C499.701,235.039,499.54,235.129,499.404,235.149
	L499.404,235.149z M485.68,232.668c0,0,0,0.002,0,0.003c0.092-0.013,0.181-0.029,0.272-0.039c0.33-0.033,0.502-0.269,0.452-0.662
	c-0.052-0.422-0.29-0.608-0.638-0.55c-0.24,0.039-0.485,0.054-0.721,0.117c-0.275,0.073-0.389,0.308-0.332,0.663
	c0.055,0.35,0.227,0.538,0.515,0.53C485.379,232.728,485.529,232.691,485.68,232.668L485.68,232.668z M487.264,243.998
	c0.119-0.018,0.239-0.04,0.361-0.052c0.338-0.035,0.482-0.29,0.433-0.675c-0.05-0.363-0.257-0.563-0.565-0.534
	c-0.243,0.024-0.485,0.057-0.722,0.105c-0.318,0.064-0.472,0.293-0.398,0.707c0.068,0.385,0.269,0.539,0.574,0.497
	C487.053,244.029,487.158,244.013,487.264,243.998L487.264,243.998z M488.373,251.28c-0.106,0.016-0.211,0.03-0.316,0.046
	c-0.343,0.05-0.517,0.266-0.443,0.711c0.072,0.424,0.306,0.546,0.621,0.5c0.149-0.021,0.3-0.053,0.45-0.063
	c0.374-0.025,0.691-0.168,0.611-0.711c-0.079-0.543-0.425-0.591-0.788-0.506C488.464,251.271,488.418,251.273,488.373,251.28
	L488.373,251.28z M499.965,239.17c0.641-0.093,0.827-0.269,0.761-0.716c-0.065-0.441-0.324-0.577-0.938-0.482
	c-0.368,0.058-0.818,0.02-0.778,0.708C499.038,239.146,499.297,239.268,499.965,239.17L499.965,239.17z M486.03,235.491
	c0.136-0.019,0.309,0.018,0.397-0.07c0.159-0.162,0.366-0.383,0.376-0.605c0.019-0.345-0.205-0.585-0.52-0.56
	c-0.271,0.021-0.545,0.059-0.809,0.12c-0.303,0.07-0.414,0.323-0.341,0.697c0.067,0.351,0.244,0.516,0.537,0.473
	C485.791,235.527,485.91,235.509,486.03,235.491L486.03,235.491z M487.942,248.466c-0.105,0.015-0.212,0.034-0.316,0.045
	c-0.304,0.029-0.468,0.217-0.437,0.606c0.034,0.41,0.228,0.607,0.562,0.589c0.12-0.007,0.24-0.03,0.359-0.047
	c0.659-0.096,0.879-0.295,0.774-0.75C488.724,248.23,488.309,248.424,487.942,248.466L487.942,248.466z M487.546,246.882
	c0.268-0.059,0.417-0.085,0.563-0.128c0.361-0.105,0.528-0.551,0.27-0.87c-0.162-0.199-0.503-0.317-0.727-0.271
	c-0.308,0.064-0.778-0.083-0.862,0.478c-0.031,0.208,0.075,0.571,0.214,0.685C487.171,246.917,487.436,246.866,487.546,246.882
	L487.546,246.882z M498.689,230.677c0.12-0.018,0.24-0.039,0.361-0.052c0.339-0.035,0.486-0.28,0.426-0.674
	c-0.056-0.369-0.264-0.543-0.577-0.489c-0.238,0.04-0.479,0.074-0.721,0.104c-0.312,0.041-0.46,0.261-0.406,0.639
	c0.058,0.4,0.269,0.583,0.603,0.519C498.476,230.703,498.583,230.692,498.689,230.677L498.689,230.677z M501.604,250.49
	c0.06-0.008,0.119-0.022,0.179-0.025c0.354-0.02,0.659-0.143,0.59-0.669c-0.072-0.565-0.425-0.577-0.78-0.512
	c-0.045,0.008-0.09,0.014-0.136,0.02c-0.67,0.097-0.882,0.283-0.787,0.737C500.817,250.744,501.24,250.525,501.604,250.49
	L501.604,250.49z M498.949,232.337c-0.045,0.008-0.089,0.017-0.134,0.02c-0.356,0.027-0.706,0.098-0.627,0.675
	c0.076,0.577,0.43,0.564,0.783,0.499c0.045-0.008,0.089-0.014,0.136-0.02c0.671-0.098,0.884-0.286,0.784-0.735
	C499.734,232.088,499.314,232.296,498.949,232.337L498.949,232.337z M500.201,240.837c-0.135,0.02-0.27,0.04-0.405,0.06
	c-0.301,0.042-0.413,0.281-0.371,0.621c0.047,0.367,0.229,0.575,0.55,0.532c0.135-0.019,0.271-0.039,0.406-0.057
	c0.646-0.096,0.845-0.268,0.754-0.71C500.988,240.578,500.564,240.799,500.201,240.837L500.201,240.837z M486.32,237.154
	c-0.137,0.019-0.271,0.041-0.407,0.06c-0.299,0.041-0.42,0.254-0.378,0.612c0.047,0.384,0.226,0.577,0.543,0.547
	c0.138-0.013,0.272-0.036,0.408-0.057c0.637-0.093,0.846-0.287,0.741-0.732C487.076,236.936,486.679,237.098,486.32,237.154
	L486.32,237.154z">
<animateTransform  type="translate" fill="remove" attributeName="transform" attributeType="HML" dur="8.5s" repeatCount="indefinite" accumulate="none" calcMode="linear" restart="always" begin="0.3" values="0,0;-120,130;-125,123; 10,500" additive="replace">
		</animateTransform>
</path>
<g>
	
		<rect x="447.014" y="232.369" transform="matrix(0.9965 -0.0836 0.0836 0.9965 -18.3702 38.6237)" fill="#FFFFFF" width="10.336" height="12.757"/>
	
		<rect x="447.506" y="233.232" transform="matrix(0.9965 -0.0835 0.0835 0.9965 -18.2657 38.5852)" fill="#3F474F" width="9.162" height="8.791"/>
	<animateTransform  type="translate" fill="remove" attributeName="transform" attributeType="HML" dur="8.5s" repeatCount="indefinite" accumulate="none" calcMode="linear" restart="always" begin="0.3" values="0,0;-120,130;-105,133; 0,500" additive="replace">
		</animateTransform>
</g>
<path fill="#FFFFFF" d="M464.487,245.752c-0.111-0.047-0.233-0.079-0.333-0.145c-3.18-2.075-6.352-4.164-9.541-6.226
	c-0.771-0.497-1.138-1.19-1.207-2.059c-0.08-1.004,0.163-1.925,0.916-2.639c0.807-0.762,1.887-0.642,2.473,0.299
	c0.654,1.047,0.646,2.137,0.044,3.215c-0.11,0.198-0.233,0.393-0.361,0.581c-0.105,0.156-0.111,0.268,0.066,0.384
	c1.653,1.074,3.304,2.153,4.953,3.232c0.166,0.108,0.251,0.084,0.317-0.11c0.709-2.065,1.423-4.131,2.141-6.193
	c0.084-0.241-0.059-0.334-0.226-0.442c-1.877-1.224-3.738-2.472-5.634-3.667c-1.131-0.711-1.45-1.731-1.287-2.963
	c0.055-0.413,0.234-0.809,0.355-1.212c0.079-0.121,0.159-0.243,0.239-0.365c0.067-0.059,0.141-0.116,0.205-0.18
	c0.787-0.804,1.908-0.722,2.526,0.217c0.189,0.286,0.323,0.627,0.412,0.964c0.271,1.031-0.064,1.945-0.647,2.78
	c-0.188,0.271-0.135,0.385,0.122,0.552c2.428,1.574,4.848,3.164,7.277,4.736c0.265,0.171,0.305,0.332,0.205,0.612
	c-0.721,2.049-1.434,4.101-2.143,6.155c-0.265,0.771-0.514,1.546-0.771,2.32C464.556,245.647,464.522,245.701,464.487,245.752
	L464.487,245.752z">
<animateTransform  type="translate" fill="remove" attributeName="transform" attributeType="HML" dur="8.5s" repeatCount="indefinite" accumulate="none" calcMode="linear" restart="always" begin="0.3" values="0,0;-120,130;-105,133; 0,500" additive="replace">
		</animateTransform>
</path>
<g>
	<path fill="#FFFFFF" d="M444.45,247.466c-0.374,3.76-7.039,6.539-15.233,6.539c-8.188,0-14.851-2.732-15.226-6.978h-0.025
		l7.358-3.167l2.976-1.222v-1.323c-3.032-2.312-4.824-6.941-4.824-12.285c0-7.661,1.396-13.2,9.603-13.313
		c8.422-0.115,9.736,5.653,9.736,13.313c0,5.344-1.778,9.973-4.811,12.285v1.323l3.034,1.441L444.45,247.466z"/>
	<path fill="#FFFFFF" d="M500.058,247.466c-0.367,3.76-7.031,6.539-15.227,6.539c-8.193,0-14.857-2.732-15.226-6.978h-0.025
		l7.754-3.167l3.373-1.222v-1.323c-3.032-2.312-5.22-6.941-5.22-12.285c0-7.661,1.192-13.2,9.397-13.313
		c8.43-0.115,9.133,5.653,9.133,13.313c0,5.344-2.393,9.973-5.425,12.285v1.323l3.546,1.441L500.058,247.466z"/>
	<path fill="#FFFFFF" d="M547.998,247.466c-0.368,3.76-7.039,6.539-15.233,6.539c-8.188,0-14.852-2.732-15.226-6.978h-0.026
		l7.745-3.167l3.364-1.222v-1.323c-3.64-2.312-5.212-6.941-5.212-12.285c0-7.661,1.203-13.2,9.404-13.313
		c8.428-0.115,9.429,5.653,9.429,13.313c0,5.344-2.097,9.973-5.131,12.285v1.323l3.257,1.441L547.998,247.466z"/>
</g>
<g>
	<path fill="#898B86" d="M332.492,48.084c0.34-0.955,0.204-1.658-0.704-2.347c-1.419-1.073-2.868-2.132-4.095-3.443
		c0.047-0.14,0.094-0.278,0.141-0.417c0.97-0.381,1.857,0.159,2.782,0.268c0.833,0.098,1.644,0.37,2.476,0.48
		c1.267,0.169,2.425,0.479,3.191,1.626c0.362,0.541,0.75,0.564,1.017-0.092c0.28-0.689,0.824-0.649,1.444-0.681
		c3.037-0.153,4.801,1.155,5.927,4.071c1.341,3.474,3.234,6.732,4.881,10.088c0.203,0.412,0.583,0.871,0.104,1.291
		c-0.442,0.388-0.805-0.066-1.172-0.267c-0.737-0.4-1.474-0.806-2.209-1.21c-1.244-0.175-2.151-1.031-3.209-1.585
		c-3.16-1.804-6.243-3.741-9.455-5.456C332.262,49.571,332.13,49.294,332.492,48.084z"/>
	<path fill="#EDEDEB" d="M347.742,57.261c-0.507-0.34-1.015-0.679-1.521-1.018c-0.985-0.426-1.802-1.109-2.623-1.771
		c-2.959-2.39-6.019-4.655-8.979-7.045c-0.227-0.168-0.403-0.385-0.564-0.615c-1.562-1.592-3.477-2.76-5.103-4.395
		c1.41,0.272,2.81,0.625,4.233,0.794c1.376,0.164,2.368,0.828,3.158,1.897c0.446,0.603,0.835,0.667,1.152-0.111
		c0.37-0.903,1.04-0.86,1.929-0.887c2.418-0.073,3.554,1.14,4.459,3.235c1.436,3.325,3.191,6.511,4.812,9.755
		c-0.322,0.545-0.499,0.077-0.718-0.102c-3.067-3.641-5.846-7.508-8.796-11.243c-0.207-0.262-0.416-0.74-0.855-0.392
		c-0.431,0.339-0.495,0.833-0.104,1.256c0.671,0.729,1.301,1.492,1.992,2.199c2.405,2.458,4.907,4.826,7.159,7.431
		C347.606,56.519,348.063,56.765,347.742,57.261z"/>
	<path fill="#D3D7CF" d="M347.742,57.261c-0.451-1.125-1.437-1.82-2.22-2.659c-2.423-2.594-4.927-5.112-7.408-7.649
		c-0.382-0.39-0.672-0.75-0.384-1.34c0.509-1.042,0.839-1.09,1.551-0.161c2.483,3.249,4.968,6.496,7.436,9.757
		c0.438,0.579,1.095,0.97,1.384,1.667c0.038,0.239,0.211,0.479-0.009,0.714C347.937,57.523,347.771,57.462,347.742,57.261z"/>
	<path fill="#969893" d="M334.674,47.186c2.834,2.192,5.68,4.366,8.491,6.585c1.027,0.812,2.153,1.505,3.056,2.474
		c-1.021,0.148-1.633-0.668-2.396-1.074c-1.468-0.779-2.941-1.565-4.272-2.578c-1.249-1.195-2.706-2.106-4.152-3.03
		c-0.768-0.491-1.229-1.144-1.126-2.092C334.296,47.27,334.343,46.998,334.674,47.186z"/>
	<path fill="#A3A5A1" d="M334.674,47.186c-0.422,0.873-0.054,1.49,0.659,1.979c1.04,0.714,2.104,1.396,3.13,2.132
		c0.461,0.331,0.961,0.667,1.091,1.294c-2.115-0.945-4.054-2.207-5.99-3.456c-0.689-0.445-0.415-1.208,0.051-1.748
		c0.16-0.186,0.373-0.32,0.442-0.576C334.318,46.843,334.556,46.915,334.674,47.186z"/>
	<path fill="#BDBFBA" d="M348.093,57.59c0.002-0.238,0.005-0.477,0.008-0.714c0.188,0.1,0.265,0.503,0.597,0.224
		c0.329,0.342,0.525,0.749,0.63,1.279C348.746,58.306,348.398,57.983,348.093,57.59z"/>
	
		<animateTransform  type="translate" fill="remove" attributeName="transform" attributeType="HML" dur="8.5s" repeatCount="indefinite" accumulate="none" calcMode="linear" restart="always" begin="0.3" values="-40,0;-48,10;120,160" additive="replace">
		</animateTransform>
</g>
<path fill="none" d="z"/>
<g>
	<g>
		<g>

			<polygon fill="#30CCCF" points="369.181,415.76 293.682,415.76 288.432,366.07 372.807,366.07 			"/>
			<polygon fill="none" stroke="#FFFFFF" stroke-miterlimit="10" points="369.181,415.76 293.682,415.76 288.432,366.07 
				372.807,366.07 			"/>
			<path fill="#FFFFFF" d="M347.227,391.567l-2.613-1.695l-1.246-8.874l-3.076,0.442l-6.773-5.89l-2.007,2.353h-8.999v2.978
				l-5.861,3.663l1.647,2.638l-2.662,8.712l3.101,0.948l3.569,8.011l2.846-1.268l8.121,3.789l1.317-2.825l8.613-2.47l-0.857-2.994
				L347.227,391.567z M331.431,399.903c-4.662,0-8.44-3.779-8.44-8.442c0-4.662,3.778-8.442,8.44-8.442
				c4.663,0,8.443,3.78,8.443,8.442C339.875,396.124,336.094,399.903,331.431,399.903			">

			</path>
			<polygon fill="#FFFFFF" points="328.871,387.402 335.9,391.463 328.871,395.521 			"/>
		</g>
		<g>
			<rect x="407.244" y="15.404" fill="none" width="177.228" height="92.372"/>
			<text transform="matrix(1 0 0 1 421.6475 25.1001)" fill="#FFFFFF" font-family="'Avenir-Heavy', sans-serif" font-size="12.8261">Submits a request to the </text>
			<text transform="matrix(1 0 0 1 416.7671 40.4917)" fill="#FFFFFF" font-family="'Avenir-Heavy', sans-serif" font-size="12.8261">community via the app for </text>
			<text transform="matrix(1 0 0 1 432.4658 55.8828)" fill="#FFFFFF" font-family="'Avenir-Heavy', sans-serif" font-size="12.8261">photos and videos of </text>
			<text transform="matrix(1 0 0 1 436.917 71.2739)" fill="#FFFFFF" font-family="'Avenir-Heavy', sans-serif" font-size="12.8261"> a topic or location</text>
		</g>
	</g>
</g>
<rect x="407.244" y="351.057" fill="none" width="177.228" height="92.371"/>
<text transform="matrix(1 0 0 1 421.6475 360.752)" fill="#FFFFFF" font-family="'Avenir-Heavy', sans-serif" font-size="12.8261">Submits a request to the </text>
<text transform="matrix(1 0 0 1 416.7671 376.1445)" fill="#FFFFFF" font-family="'Avenir-Heavy', sans-serif" font-size="12.8261">community via the app for </text>
<text transform="matrix(1 0 0 1 432.4658 391.5352)" fill="#FFFFFF" font-family="'Avenir-Heavy', sans-serif" font-size="12.8261">photos and videos of </text>
<text transform="matrix(1 0 0 1 436.917 406.9258)" fill="#FFFFFF" font-family="'Avenir-Heavy', sans-serif" font-size="12.8261"> a topic or location</text>
<rect x="242.735" y="205.053" fill="none" width="177.228" height="92.372"/>
<text transform="matrix(1 0 0 1 257.1382 214.749)" fill="#FFFFFF" font-family="'Avenir-Heavy', sans-serif" font-size="12.8261">Submits a request to the </text>
<text transform="matrix(1 0 0 1 252.2578 230.1406)" fill="#FFFFFF" font-family="'Avenir-Heavy', sans-serif" font-size="12.8261">community via the app for </text>
<text transform="matrix(1 0 0 1 267.9565 245.5317)" fill="#FFFFFF" font-family="'Avenir-Heavy', sans-serif" font-size="12.8261">photos and videos of </text>
<text transform="matrix(1 0 0 1 272.4077 260.9229)" fill="#FFFFFF" font-family="'Avenir-Heavy', sans-serif" font-size="12.8261"> a topic or location</text>
</svg>
